<svg width="82" height="78" viewBox="0 0 82 78" fill="none" xmlns="http://www.w3.org/2000/svg">
<mask id="mask0_3_41" style="mask-type:luminance" maskUnits="userSpaceOnUse" x="23" y="12" width="39" height="37">
<path d="M23.0935 12H61.6535V48.3381H23.0935V12Z" fill="white"/>
</mask>
<g mask="url(#mask0_3_41)">
<mask id="mask1_3_41" style="mask-type:luminance" maskUnits="userSpaceOnUse" x="13" y="6" width="55" height="51">
<path d="M40.3644 6.46799L67.5554 32.0259L41.0503 56.9391L13.849 31.3813L40.3644 6.46799Z" fill="white"/>
</mask>
<g mask="url(#mask1_3_41)">
<mask id="mask2_3_41" style="mask-type:luminance" maskUnits="userSpaceOnUse" x="13" y="6" width="55" height="51">
<path d="M40.3644 6.46799L67.5606 32.0259L41.0503 56.9391L13.849 31.3813L40.3644 6.46799Z" fill="white"/>
</mask>
<g mask="url(#mask2_3_41)">
<path d="M47.4181 14.0396C48.7131 15.2519 49.5168 16.9307 49.5168 18.7827C49.5168 22.4964 46.3124 25.4981 42.3709 25.4981C41.0503 25.4981 39.8013 25.984 38.8697 26.8643C37.938 27.7398 37.4159 28.9087 37.421 30.1546C37.4159 32.7186 39.6375 34.8015 42.3709 34.8015C43.6916 34.8015 44.9303 34.3204 45.8671 33.4401C46.8038 32.5598 47.3157 31.3957 47.3157 30.1546C47.3157 26.4409 50.5149 23.4392 54.4615 23.4392C58.4081 23.4392 61.6074 26.4409 61.6074 30.1546C61.6074 34.9843 59.6059 39.5253 55.9716 42.9408C52.3372 46.3562 47.5051 48.2322 42.3658 48.2322C31.7596 48.2322 23.1293 40.1218 23.1242 30.1546C23.1242 25.3249 25.1308 20.7839 28.7651 17.3685C32.3995 13.953 37.2316 12.0722 42.3709 12.0722C44.3365 12.0722 46.1281 12.8226 47.4181 14.0396Z" fill="#F2620F"/>
</g>
</g>
</g>
<mask id="mask3_3_41" style="mask-type:luminance" maskUnits="userSpaceOnUse" x="28" y="12" width="34" height="32">
<path d="M28.0024 12H61.6535V43.7778H28.0024V12Z" fill="white"/>
</mask>
<g mask="url(#mask3_3_41)">
<mask id="mask4_3_41" style="mask-type:luminance" maskUnits="userSpaceOnUse" x="13" y="6" width="55" height="51">
<path d="M40.3644 6.46799L67.5554 32.0259L41.0503 56.9391L13.849 31.3813L40.3644 6.46799Z" fill="white"/>
</mask>
<g mask="url(#mask4_3_41)">
<mask id="mask5_3_41" style="mask-type:luminance" maskUnits="userSpaceOnUse" x="13" y="6" width="55" height="51">
<path d="M40.3644 6.46799L67.5606 32.0259L41.0503 56.9391L13.849 31.3813L40.3644 6.46799Z" fill="white"/>
</mask>
<g mask="url(#mask5_3_41)">
<path d="M52.9566 24.8631C51.3698 24.8631 49.9058 25.3538 48.7182 26.1764C50.0184 24.5168 52.1069 23.4392 54.4667 23.4392C58.4133 23.4392 61.6125 26.4506 61.6125 30.1546C61.6125 34.9843 59.6111 39.5254 55.9767 42.9408C55.7208 43.1813 55.4648 43.4122 55.1986 43.6335C58.3621 40.3143 60.1025 36.0715 60.1025 31.5785C60.1025 27.8697 56.8981 24.8631 52.9566 24.8631ZM40.8609 13.5009C42.8316 13.4961 44.6232 14.2513 45.9131 15.4635C47.2031 16.6758 48.0016 18.3594 48.0067 20.2114C48.0067 21.7027 47.4795 23.0737 46.6093 24.1897C48.3702 22.9678 49.5168 21.0052 49.5168 18.7924C49.5168 16.9355 48.7182 15.2567 47.4283 14.0396C46.1281 12.8274 44.3468 12.077 42.3709 12.077C37.2316 12.077 32.3995 13.9579 28.7652 17.3685C28.5143 17.609 28.2737 17.8543 28.0332 18.0997C31.5651 15.1268 36.0748 13.5009 40.8609 13.5009Z" fill="#BF3706"/>
</g>
</g>
</g>
<path d="M12.5283 63.0773C11.7605 63.0773 11.0439 62.9426 10.3784 62.6732C9.71808 62.4038 9.12942 62.0286 8.62266 61.5475C8.1159 61.0713 7.71663 60.5181 7.42486 59.8928C7.13821 59.2722 7 58.5987 7 57.8772C7 57.1604 7.13821 56.487 7.42486 55.8616C7.71663 55.2362 8.1159 54.6879 8.62266 54.2068C9.12942 53.7306 9.71808 53.3554 10.3784 53.086C11.0439 52.8166 11.7605 52.6771 12.5283 52.6771C13.593 52.6771 14.5605 52.9369 15.4358 53.4468C16.306 53.9567 16.9714 54.6301 17.4321 55.4671L15.3846 56.4581C15.1184 55.9771 14.7345 55.5922 14.2277 55.294C13.7261 55.0053 13.163 54.8562 12.5283 54.8562C11.9294 54.8562 11.3868 54.9861 10.9005 55.2555C10.4194 55.5152 10.0303 55.8808 9.75392 56.333C9.46726 56.79 9.32906 57.3047 9.32906 57.8772C9.32906 58.4496 9.46726 58.9691 9.75392 59.4213C10.0303 59.8783 10.4194 60.2391 10.9005 60.5037C11.3868 60.7683 11.9294 60.8981 12.5283 60.8981C13.163 60.8981 13.7261 60.749 14.2277 60.4604C14.7345 60.1669 15.1184 59.7773 15.3846 59.2963L17.4321 60.292C16.9714 61.1146 16.306 61.7784 15.4358 62.298C14.5605 62.8175 13.593 63.0773 12.5283 63.0773Z" fill="#F2620F"/>
<path d="M18.6658 62.9426V51.3783H20.9641V62.9426H18.6658Z" fill="#F2620F"/>
<path d="M23.9842 55.0631C23.6463 55.0631 23.3495 54.9428 23.1038 54.7071C22.8478 54.4666 22.725 54.1924 22.725 53.8797C22.725 53.5526 22.8478 53.2736 23.1038 53.0427C23.3495 52.8118 23.6463 52.6963 23.9842 52.6963C24.3271 52.6963 24.624 52.8118 24.8697 53.0427C25.1154 53.2736 25.2383 53.5526 25.2383 53.8797C25.2383 54.1924 25.1154 54.4666 24.8697 54.7071C24.624 54.9428 24.3271 55.0631 23.9842 55.0631ZM22.8325 62.9426V56.1887H25.1103V62.9426H22.8325Z" fill="#F2620F"/>
<path d="M30.4953 63.0773C29.6968 63.0773 28.9955 62.9233 28.3966 62.6203C27.8028 62.3172 27.3319 61.8987 26.994 61.3696C26.6613 60.8404 26.4924 60.2391 26.4924 59.5656C26.4924 58.8922 26.6613 58.2861 26.994 57.7569C27.3319 57.2278 27.8028 56.8141 28.3966 56.511C28.9955 56.208 29.6968 56.054 30.4953 56.054C31.5754 56.054 32.4609 56.3234 33.1571 56.8622C33.8532 57.3913 34.273 58.084 34.4317 58.921H32.0617C31.9388 58.6324 31.7443 58.4015 31.4679 58.2332C31.1915 58.0648 30.8741 57.9734 30.4953 57.959C30.009 57.9734 29.6046 58.1273 29.277 58.4304C28.9545 58.7238 28.7959 59.1038 28.7959 59.5656C28.7959 60.0178 28.9545 60.393 29.277 60.6961C29.6046 60.9992 30.009 61.1579 30.4953 61.1675C30.8741 61.1579 31.1915 61.0665 31.4679 60.8933C31.7443 60.7153 31.9388 60.4893 32.0617 60.2054H34.4317C34.273 61.0473 33.8532 61.74 33.1571 62.2787C32.4609 62.8079 31.5754 63.0773 30.4953 63.0773Z" fill="#F2620F"/>
<path d="M43.5175 62.9426H40.5384L38.0046 59.835V62.9426H35.7267V51.3783H38.0046V58.6228L40.4974 56.1887H43.2462L40.1084 59.2433L43.5175 62.9426Z" fill="#F2620F"/>
<path d="M46.2817 63.0773C45.647 63.0773 45.0327 62.933 44.4492 62.6539C43.8656 62.3749 43.4612 61.9709 43.2462 61.4561L44.9355 60.6624C45.1044 60.9414 45.2989 61.1338 45.5139 61.2301C45.7391 61.3215 45.9439 61.3696 46.1384 61.3696C46.3278 61.3696 46.4813 61.3359 46.5939 61.2589C46.7117 61.1916 46.7629 61.0857 46.7629 60.9511C46.7629 60.826 46.7014 60.7202 46.5786 60.6239C46.4506 60.5277 46.2305 60.4219 45.9029 60.3065C45.6265 60.2102 45.3142 60.0804 44.961 59.9312C44.6078 59.7773 44.3007 59.5656 44.0345 59.2963C43.7735 59.0269 43.6404 58.6661 43.6404 58.2187C43.6404 57.8339 43.753 57.4779 43.9731 57.1508C44.1932 56.8237 44.5055 56.5639 44.9099 56.3619C45.3091 56.1599 45.7801 56.054 46.3175 56.054C46.8192 56.054 47.285 56.1406 47.7047 56.3138C48.1347 56.4773 48.4777 56.689 48.7387 56.9488L47.5921 58.1658C47.4846 58.0407 47.3311 57.9301 47.1314 57.8291C46.9369 57.7281 46.7219 57.6751 46.4762 57.6751C46.2868 57.6751 46.1435 57.7136 46.0462 57.7858C45.9541 57.8579 45.9029 57.9493 45.9029 58.0648C45.9029 58.1899 45.9643 58.2861 46.0923 58.363C46.2203 58.4304 46.4148 58.517 46.6758 58.6228C47.0239 58.7479 47.3669 58.897 47.6996 59.075C48.0323 59.2578 48.319 59.4887 48.5442 59.7773C48.7694 60.0659 48.8872 60.4315 48.8872 60.8837C48.8872 61.5091 48.6568 62.0382 48.1961 62.4519C47.7354 62.8656 47.0956 63.0773 46.2817 63.0773Z" fill="#F2620F"/>
<path d="M54.7891 56.1887H57.1643L52.5676 66.993H50.1617L51.851 63.0917L48.8462 56.1887H51.2367L53.0334 60.6624L54.7891 56.1887Z" fill="#F2620F"/>
<path d="M59.2271 63.0773C58.8791 63.0773 58.5771 62.9522 58.3211 62.7117C58.0652 62.4711 57.9321 62.1825 57.9321 61.8458C57.9321 61.5091 58.0652 61.2204 58.3211 60.9751C58.5771 60.7346 58.8791 60.6143 59.2271 60.6143C59.5855 60.6143 59.8977 60.7346 60.1588 60.9751C60.4249 61.2204 60.5529 61.5091 60.5529 61.8458C60.5529 62.1825 60.4249 62.4711 60.1588 62.7117C59.8977 62.9522 59.5855 63.0773 59.2271 63.0773Z" fill="#F2620F"/>
<path d="M63.6242 55.0631C63.2915 55.0631 62.9997 54.9428 62.7438 54.7071C62.4981 54.4666 62.3701 54.1924 62.3701 53.8797C62.3701 53.5526 62.4981 53.2736 62.7438 53.0427C62.9997 52.8118 63.2915 52.6963 63.6242 52.6963C63.9723 52.6963 64.2692 52.8118 64.5149 53.0427C64.7606 53.2736 64.8834 53.5526 64.8834 53.8797C64.8834 54.1924 64.7606 54.4666 64.5149 54.7071C64.2692 54.9428 63.9723 55.0631 63.6242 55.0631ZM62.4776 62.9426V56.1887H64.7606V62.9426H62.4776Z" fill="#F2620F"/>
<path d="M71.7426 51.3783H74.0256V62.9426L71.7426 62.957V62.3461C71.4764 62.577 71.1744 62.7502 70.8315 62.88C70.4936 63.0099 70.1148 63.0773 69.6951 63.0773C69.0399 63.0773 68.4359 62.9185 67.8984 62.6058C67.3609 62.2884 66.9309 61.865 66.6136 61.3359C66.2962 60.8067 66.1375 60.2199 66.1375 59.5656C66.1375 58.9114 66.2962 58.3245 66.6136 57.7954C66.9309 57.2663 67.3609 56.8429 67.8984 56.5254C68.4359 56.2176 69.0399 56.054 69.6951 56.054C70.1148 56.054 70.4936 56.1214 70.8315 56.2513C71.1744 56.3811 71.4764 56.5543 71.7426 56.7804V51.3783ZM70.1456 61.1675C70.6062 61.1675 71.0106 61.0136 71.3434 60.7057C71.6812 60.393 71.8501 60.0178 71.8501 59.5656C71.8501 59.1135 71.6812 58.7382 71.3434 58.4304C71.0106 58.1177 70.6062 57.959 70.1456 57.959C69.6644 57.959 69.26 58.1177 68.9273 58.4304C68.5997 58.7382 68.4359 59.1135 68.4359 59.5656C68.4359 60.0178 68.5997 60.393 68.9273 60.7057C69.26 61.0136 69.6644 61.1675 70.1456 61.1675Z" fill="#F2620F"/>
</svg>
