<svg xmlns="http://www.w3.org/2000/svg" xmlns:xlink="http://www.w3.org/1999/xlink" width="1080" zoomAndPan="magnify" viewBox="0 0 810 809.999993" height="1080" preserveAspectRatio="xMidYMid meet" version="1.0"><defs><clipPath id="3b7087658d"><path d="M 233 158 L 711.214844 158 L 711.214844 697 L 233 697 Z M 233 158 " clip-rule="nonzero"/></clipPath><clipPath id="1069f10bec"><path d="M 347 381 L 711.214844 381 L 711.214844 697 L 347 697 Z M 347 381 " clip-rule="nonzero"/></clipPath><clipPath id="49b14c6932"><path d="M 316 113.027344 L 362 113.027344 L 362 159 L 316 159 Z M 316 113.027344 " clip-rule="nonzero"/></clipPath><clipPath id="0054af15c8"><path d="M 177 113.027344 L 223 113.027344 L 223 159 L 177 159 Z M 177 113.027344 " clip-rule="nonzero"/></clipPath><clipPath id="f3a1ee13f1"><path d="M 98.464844 218 L 135 218 L 135 255 L 98.464844 255 Z M 98.464844 218 " clip-rule="nonzero"/></clipPath></defs><g clip-path="url(#3b7087658d)"><path fill="#4d7afd" d="M 500.535156 381.90625 L 500.535156 481.503906 L 597.976562 481.503906 L 597.976562 574.632812 C 576.28125 584.019531 549.636719 588.335938 520.710938 588.335938 C 420.351562 588.335938 364.777344 521.21875 364.777344 427.328125 C 364.777344 413.753906 366.175781 400.683594 368.839844 388.378906 C 368.839844 388.378906 368.839844 388.25 368.839844 388.25 C 384.0625 316.945312 441.160156 267.71875 515 267.71875 C 564.863281 267.71875 605.972656 287.890625 629.824219 315.425781 L 707.851562 226.609375 C 665.222656 185.503906 590.871094 158.730469 510.6875 158.730469 C 436.589844 158.730469 370.363281 182.332031 321.132812 224.707031 L 378.988281 224.707031 L 378.988281 287.257812 L 316.4375 287.257812 L 316.4375 228.894531 C 279.265625 262.644531 252.492188 307.558594 240.441406 361.351562 L 302.609375 361.351562 L 302.609375 423.902344 L 338.769531 423.902344 L 338.769531 460.0625 L 302.609375 460.0625 L 302.609375 423.902344 L 240.058594 423.902344 L 240.058594 363.382812 C 235.746094 383.558594 233.460938 404.871094 233.460938 427.328125 C 233.460938 546.847656 298.296875 637.308594 398.402344 676.007812 C 433.164062 689.457031 472.242188 696.6875 514.367188 696.6875 C 593.03125 696.6875 661.667969 678.671875 711.53125 652.660156 L 711.53125 381.90625 Z M 500.535156 381.90625 " fill-opacity="1" fill-rule="nonzero"/></g><g clip-path="url(#1069f10bec)"><path fill="#5063c6" d="M 711.40625 381.90625 L 711.40625 652.660156 C 661.542969 678.671875 592.902344 696.6875 514.238281 696.6875 C 472.117188 696.6875 433.039062 689.457031 398.273438 676.007812 C 306.417969 564.101562 367.445312 392.183594 368.839844 388.378906 C 366.175781 400.8125 364.777344 413.753906 364.777344 427.328125 C 364.777344 521.21875 420.351562 588.335938 520.710938 588.335938 C 549.636719 588.335938 576.28125 584.019531 597.976562 574.632812 L 597.976562 481.503906 L 500.535156 481.503906 L 500.535156 381.90625 Z M 711.40625 381.90625 " fill-opacity="1" fill-rule="nonzero"/></g><path fill="#4d7afd" d="M 253.761719 162.15625 L 316.3125 162.15625 L 316.3125 224.707031 L 253.761719 224.707031 Z M 253.761719 162.15625 " fill-opacity="1" fill-rule="nonzero"/><path fill="#4d7afd" d="M 177.382812 298.804688 L 239.933594 298.804688 L 239.933594 361.351562 L 177.382812 361.351562 Z M 177.382812 298.804688 " fill-opacity="1" fill-rule="nonzero"/><g clip-path="url(#49b14c6932)"><path fill="#4d7afd" d="M 316.4375 113.308594 L 361.859375 113.308594 L 361.859375 158.730469 L 316.4375 158.730469 Z M 316.4375 113.308594 " fill-opacity="1" fill-rule="nonzero"/></g><g clip-path="url(#0054af15c8)"><path fill="#4d7afd" d="M 177.382812 113.308594 L 222.804688 113.308594 L 222.804688 158.730469 L 177.382812 158.730469 Z M 177.382812 113.308594 " fill-opacity="1" fill-rule="nonzero"/></g><g clip-path="url(#f3a1ee13f1)"><path fill="#4d7afd" d="M 98.464844 218.109375 L 134.625 218.109375 L 134.625 254.269531 L 98.464844 254.269531 Z M 98.464844 218.109375 " fill-opacity="1" fill-rule="nonzero"/></g><path fill="#4d7afd" d="M 139.066406 361.351562 L 177.382812 361.351562 L 177.382812 399.671875 L 139.066406 399.671875 Z M 139.066406 361.351562 " fill-opacity="1" fill-rule="nonzero"/></svg>