<?xml version="1.0" encoding="UTF-8"?>
<svg xmlns="http://www.w3.org/2000/svg" xmlns:xlink="http://www.w3.org/1999/xlink" width="100px" height="100px" viewBox="0 0 100 100" version="1.1">
<defs>
<clipPath id="clip1">
  <path d="M 16.914062 34.691406 L 41.449219 34.691406 L 41.449219 62.332031 L 16.914062 62.332031 Z M 16.914062 34.691406 "/>
</clipPath>
<clipPath id="clip2">
  <path d="M 22.714844 46.171875 L 41.449219 46.171875 L 41.449219 62.332031 L 22.714844 62.332031 Z M 22.714844 46.171875 "/>
</clipPath>
<clipPath id="clip3">
  <path d="M 21.109375 32.425781 L 23.582031 32.425781 L 23.582031 34.816406 L 21.109375 34.816406 Z M 21.109375 32.425781 "/>
</clipPath>
<clipPath id="clip4">
  <path d="M 14.074219 32.425781 L 16.542969 32.425781 L 16.542969 34.816406 L 14.074219 34.816406 Z M 14.074219 32.425781 "/>
</clipPath>
<clipPath id="clip5">
  <path d="M 10.058594 37.777344 L 11.976562 37.777344 L 11.976562 39.753906 L 10.058594 39.753906 Z M 10.058594 37.777344 "/>
</clipPath>
</defs>
<g id="surface1">
<g clip-path="url(#clip1)" clip-rule="nonzero">
<path style=" stroke:none;fill-rule:nonzero;fill:rgb(30.19608%,47.843137%,99.215686%);fill-opacity:1;" d="M 30.648438 46.195312 L 30.648438 51.296875 L 35.640625 51.296875 L 35.640625 56.0625 C 34.527344 56.546875 33.164062 56.765625 31.683594 56.765625 C 26.542969 56.765625 23.695312 53.328125 23.695312 48.519531 C 23.695312 47.824219 23.769531 47.15625 23.90625 46.527344 C 23.90625 46.527344 23.90625 46.519531 23.90625 46.519531 C 24.683594 42.867188 27.609375 40.347656 31.390625 40.347656 C 33.945312 40.347656 36.046875 41.378906 37.269531 42.789062 L 41.265625 38.242188 C 39.082031 36.136719 35.273438 34.765625 31.167969 34.765625 C 27.375 34.765625 23.984375 35.976562 21.460938 38.144531 L 24.425781 38.144531 L 24.425781 41.347656 L 21.222656 41.347656 L 21.222656 38.359375 C 19.316406 40.085938 17.945312 42.386719 17.328125 45.144531 L 20.511719 45.144531 L 20.511719 48.347656 L 22.363281 48.347656 L 22.363281 50.195312 L 20.511719 50.195312 L 20.511719 48.347656 L 17.308594 48.347656 L 17.308594 45.246094 C 17.089844 46.28125 16.972656 47.371094 16.972656 48.519531 C 16.972656 54.640625 20.292969 59.273438 25.417969 61.253906 C 27.199219 61.945312 29.199219 62.316406 31.359375 62.316406 C 35.386719 62.316406 38.902344 61.390625 41.453125 60.058594 L 41.453125 46.195312 Z M 30.648438 46.195312 "/>
</g>
<g clip-path="url(#clip2)" clip-rule="nonzero">
<path style=" stroke:none;fill-rule:nonzero;fill:rgb(31.37255%,38.82353%,77.64706%);fill-opacity:1;" d="M 41.449219 46.195312 L 41.449219 60.058594 C 38.894531 61.390625 35.378906 62.316406 31.351562 62.316406 C 29.195312 62.316406 27.191406 61.945312 25.414062 61.253906 C 20.707031 55.523438 23.832031 46.722656 23.90625 46.527344 C 23.769531 47.164062 23.695312 47.824219 23.695312 48.519531 C 23.695312 53.328125 26.542969 56.765625 31.683594 56.765625 C 33.164062 56.765625 34.527344 56.546875 35.640625 56.0625 L 35.640625 51.296875 L 30.648438 51.296875 L 30.648438 46.195312 Z M 41.449219 46.195312 "/>
</g>
<path style=" stroke:none;fill-rule:nonzero;fill:rgb(30.19608%,47.843137%,99.215686%);fill-opacity:1;" d="M 18.011719 34.941406 L 21.214844 34.941406 L 21.214844 38.144531 L 18.011719 38.144531 Z M 18.011719 34.941406 "/>
<path style=" stroke:none;fill-rule:nonzero;fill:rgb(30.19608%,47.843137%,99.215686%);fill-opacity:1;" d="M 14.101562 41.941406 L 17.304688 41.941406 L 17.304688 45.144531 L 14.101562 45.144531 Z M 14.101562 41.941406 "/>
<g clip-path="url(#clip3)" clip-rule="nonzero">
<path style=" stroke:none;fill-rule:nonzero;fill:rgb(30.19608%,47.843137%,99.215686%);fill-opacity:1;" d="M 21.222656 32.441406 L 23.546875 32.441406 L 23.546875 34.765625 L 21.222656 34.765625 Z M 21.222656 32.441406 "/>
</g>
<g clip-path="url(#clip4)" clip-rule="nonzero">
<path style=" stroke:none;fill-rule:nonzero;fill:rgb(30.19608%,47.843137%,99.215686%);fill-opacity:1;" d="M 14.101562 32.441406 L 16.425781 32.441406 L 16.425781 34.765625 L 14.101562 34.765625 Z M 14.101562 32.441406 "/>
</g>
<g clip-path="url(#clip5)" clip-rule="nonzero">
<path style=" stroke:none;fill-rule:nonzero;fill:rgb(30.19608%,47.843137%,99.215686%);fill-opacity:1;" d="M 10.058594 37.808594 L 11.910156 37.808594 L 11.910156 39.660156 L 10.058594 39.660156 Z M 10.058594 37.808594 "/>
</g>
<path style=" stroke:none;fill-rule:nonzero;fill:rgb(30.19608%,47.843137%,99.215686%);fill-opacity:1;" d="M 12.136719 45.144531 L 14.101562 45.144531 L 14.101562 47.105469 L 12.136719 47.105469 Z M 12.136719 45.144531 "/>
<path style=" stroke:none;fill-rule:nonzero;fill:rgb(30.19608%,47.843137%,99.215686%);fill-opacity:1;" d="M 52.417969 46.9375 C 52.257812 46.644531 52.027344 46.417969 51.730469 46.261719 C 51.433594 46.109375 51.082031 46.03125 50.675781 46.03125 C 49.976562 46.03125 49.417969 46.257812 48.996094 46.71875 C 48.574219 47.175781 48.363281 47.789062 48.363281 48.554688 C 48.363281 49.371094 48.585938 50.011719 49.027344 50.46875 C 49.46875 50.929688 50.078125 51.15625 50.851562 51.15625 C 51.382812 51.15625 51.832031 51.023438 52.199219 50.753906 C 52.5625 50.484375 52.832031 50.097656 53 49.589844 L 50.257812 49.589844 L 50.257812 48 L 54.957031 48 L 54.957031 50.007812 C 54.796875 50.546875 54.523438 51.046875 54.140625 51.511719 C 53.761719 51.976562 53.273438 52.351562 52.683594 52.636719 C 52.09375 52.921875 51.429688 53.066406 50.6875 53.066406 C 49.8125 53.066406 49.03125 52.875 48.34375 52.488281 C 47.660156 52.105469 47.125 51.574219 46.742188 50.894531 C 46.359375 50.210938 46.167969 49.429688 46.167969 48.554688 C 46.167969 47.679688 46.359375 46.898438 46.742188 46.214844 C 47.125 45.527344 47.65625 44.992188 48.339844 44.609375 C 49.019531 44.226562 49.800781 44.035156 50.675781 44.035156 C 51.738281 44.035156 52.628906 44.292969 53.359375 44.804688 C 54.089844 45.316406 54.570312 46.027344 54.804688 46.9375 Z M 52.417969 46.9375 "/>
<path style=" stroke:none;fill-rule:nonzero;fill:rgb(30.19608%,47.843137%,99.215686%);fill-opacity:1;" d="M 58.3125 51.335938 L 61.144531 51.335938 L 61.144531 53 L 56.15625 53 L 56.15625 44.136719 L 58.3125 44.136719 Z M 58.3125 51.335938 "/>
<path style=" stroke:none;fill-rule:nonzero;fill:rgb(30.19608%,47.843137%,99.215686%);fill-opacity:1;" d="M 64.335938 44.136719 L 64.335938 53 L 62.179688 53 L 62.179688 44.136719 Z M 64.335938 44.136719 "/>
<path style=" stroke:none;fill-rule:nonzero;fill:rgb(30.19608%,47.843137%,99.215686%);fill-opacity:1;" d="M 69.226562 44.136719 C 70.160156 44.136719 70.976562 44.320312 71.671875 44.691406 C 72.371094 45.0625 72.914062 45.582031 73.296875 46.25 C 73.679688 46.921875 73.871094 47.691406 73.871094 48.566406 C 73.871094 49.433594 73.679688 50.207031 73.296875 50.878906 C 72.914062 51.554688 72.371094 52.074219 71.667969 52.445312 C 70.964844 52.816406 70.152344 53 69.226562 53 L 65.902344 53 L 65.902344 44.136719 Z M 69.085938 51.132812 C 69.902344 51.132812 70.539062 50.910156 70.992188 50.460938 C 71.449219 50.015625 71.675781 49.386719 71.675781 48.566406 C 71.675781 47.75 71.449219 47.117188 70.992188 46.664062 C 70.539062 46.207031 69.902344 45.980469 69.085938 45.980469 L 68.0625 45.980469 L 68.0625 51.132812 Z M 69.085938 51.132812 "/>
<path style=" stroke:none;fill-rule:nonzero;fill:rgb(30.19608%,47.843137%,99.215686%);fill-opacity:1;" d="M 79.605469 53 L 77.761719 49.65625 L 77.242188 49.65625 L 77.242188 53 L 75.082031 53 L 75.082031 44.136719 L 78.707031 44.136719 C 79.40625 44.136719 80 44.257812 80.496094 44.503906 C 80.988281 44.746094 81.355469 45.082031 81.601562 45.507812 C 81.84375 45.929688 81.964844 46.40625 81.964844 46.925781 C 81.964844 47.515625 81.800781 48.042969 81.464844 48.503906 C 81.136719 48.96875 80.644531 49.296875 79.996094 49.492188 L 82.042969 53 Z M 77.242188 48.125 L 78.582031 48.125 C 78.976562 48.125 79.273438 48.03125 79.472656 47.835938 C 79.667969 47.644531 79.769531 47.371094 79.769531 47.015625 C 79.769531 46.679688 79.667969 46.414062 79.472656 46.222656 C 79.273438 46.027344 78.976562 45.929688 78.582031 45.929688 L 77.242188 45.929688 Z M 77.242188 48.125 "/>
</g>
</svg>
