<svg width="389" height="382" viewBox="0 0 389 382" fill="none" xmlns="http://www.w3.org/2000/svg">
<path d="M305.069 22.6135C329.2 43.1297 339.9 80.5147 353.559 113.113C367.218 145.71 384.064 173.749 387.706 203.84C391.349 234.158 382.243 266.3 364.714 292.515C347.185 318.502 321.46 338.334 293.459 355.203C265.458 372.072 235.408 385.977 208.318 380.962C181 376.175 156.641 352.24 127.502 336.055C98.1354 320.098 63.9879 311.663 38.2634 290.463C12.5389 269.491 -4.53483 235.526 1.83937 205.435C8.44123 175.345 38.4911 149.13 58.5243 118.356C78.7851 87.5814 89.0294 52.7039 111.794 31.2759C134.559 10.0759 170.073 2.5533 206.497 0.501682C243.149 -1.54993 280.711 2.09739 305.069 22.6135Z" fill="url(#paint0_linear_5_47)" fill-opacity="0.7"/>
<defs>
<linearGradient id="paint0_linear_5_47" x1="0.500001" y1="382" x2="388.5" y2="2.29492e-05" gradientUnits="userSpaceOnUse">
<stop stop-color="#FF7454" stop-opacity="0.0588235"/>
<stop offset="0.927885" stop-color="white"/>
</linearGradient>
</defs>
</svg>
