<svg width="268" height="252" viewBox="0 0 268 252" fill="none" xmlns="http://www.w3.org/2000/svg">
<path d="M200.826 16.5138C221.723 23.0452 243.764 33.3322 255.518 50.4771C267.11 67.6221 268.579 91.7883 266.947 114.975C265.314 138.161 260.416 160.368 250.784 180.942C240.988 201.679 226.295 220.784 207.193 234.01C187.928 247.399 164.092 255.074 142.704 250.828C121.48 246.42 102.705 229.928 83.2768 216.702C63.8486 203.475 43.7674 193.352 28.584 177.023C13.5639 160.858 3.27835 138.325 0.99268 114.648C-1.29299 90.8086 4.42119 65.8259 17.1556 45.5786C30.0534 25.1679 49.9713 9.65577 71.6852 3.45093C93.3991 -2.59063 116.746 0.511788 138.459 3.61421C160.01 6.71663 179.928 9.81906 200.826 16.5138Z" fill="url(#paint0_linear_5_49)" fill-opacity="0.7"/>
<defs>
<linearGradient id="paint0_linear_5_49" x1="267.5" y1="-2.11895e-05" x2="0.500006" y2="252" gradientUnits="userSpaceOnUse">
<stop stop-color="#FDC5A4"/>
<stop offset="1" stop-color="white"/>
</linearGradient>
</defs>
</svg>
